# xmcd
#
# Track frame offsets: 
#        150
#        8627
#        13447
#        15560
#        20000
#        24725
#        28275
#        41495
#        45302
#        47967
#        56925
#        63900
#        74625
#        85650
#        97365
#        140877
#        161265
#        178800
#        192825
#        211687
#        221125
#        237150
#        262125
#        284475
#        291375
#
# Disc length: 4168 seconds
#
# Revision: 0
# Processed by: cddbd v1.5.2PL0 Copyright (c) Steve Scherf et al.
# Submitted via: ExactAudioCopy v1.3
#
DISCID=85104619
DTITLE=Martha Argerich - Schumann - Kinderszenen, Op. 15, Kreisleriana
DTITLE=, Op. 16, Piano Sonata No. 2 - Martha Argerich (1983, 1971)
DYEAR=1900
DGENRE=Classical
TTITLE0=Schumann: Kinderszenen, Op. 15 - Von Fremden Landern Und Mensc
TTITLE0=hen (1983)
TTITLE1=Schumann: Kinderszenen, Op. 15 - Kuriose Geschichten (1983)
TTITLE2=Schumann: Kinderszenen, Op. 15 - Hasche-Mann (1983)
TTITLE3=Schumann: Kinderszenen, Op. 15 - Bittendes Kind (1983)
TTITLE4=Schumann: Kinderszenen, Op. 15 - Gluckes Genug (1983)
TTITLE5=Schumann: Kinderszenen, Op. 15 - Wichtige Begebenheit (1983)
TTITLE6=Schumann: Kinderszenen, Op. 15 - Traumerei (1983)
TTITLE7=Schumann: Kinderszenen, Op. 15 - Am Kamin (1983)
TTITLE8=Schumann: Kinderszenen, Op. 15 - Ritter Vom Steckenpferd (1983
TTITLE8=)
TTITLE9=Schumann: Kinderszenen, Op. 15 - Fast Zu Ernst (1983)
TTITLE10=Schumann: Kinderszenen, Op. 15 - Frightening (1985)
TTITLE11=Schumann: Kinderszenen, Op. 15 - Child Falling Asleep (1985)
TTITLE12=Schumann: Kinderszenen, Op. 15 - The Poet Speaks (1985)
TTITLE13=Schumann: Kreisleriana, Op. 16 - 1. Ausserst Bewegt (1985)
TTITLE14=Schumann: Kreisleriana, Op. 16 - 2. Sehr Innig Und Nicht Zu R
TTITLE14=asch (1983)
TTITLE15=Schumann: Kreisleriana, Op. 16 - 3. Sehr Aufgeregt (1983)
TTITLE16=Schumann: Kreisleriana, Op. 16 - 4. Sehr Langsam (1983)
TTITLE17=Schumann: Kreisleriana, Op. 16 - 5. Sehr Lebhaft (1983)
TTITLE18=Schumann: Kreisleriana, Op. 16 - 6. Sehr Langsam (1983)
TTITLE19=Schumann: Kreisleriana, Op. 16 - 7. Sehr Rasch (1983)
TTITLE20=Schumann: Kreisleriana, Op. 16 - 8. Schnell Und Spielend (198
TTITLE20=3)
TTITLE21=Schumann: Piano Sonata No. 2 In G Minor, Op. 22 - 1. So Rasch
TTITLE21=Wie Moglich (1971)
TTITLE22=Schumann: Piano Sonata No. 2 In G Minor, Op. 22 - 2. Andantin
TTITLE22=o (1971)
TTITLE23=Schumann: Piano Sonata No. 2 In G Minor, Op. 22 - 3. Scherzo:
TTITLE23=Sehr Rasch Und Markiert (1971)
TTITLE24=Schumann: Piano Sonata No. 2 In G Minor, Op. 22 - 4. Rondo: P
TTITLE24=resto (1971)
EXTD=
EXTT0=
EXTT1=
EXTT2=
EXTT3=
EXTT4=
EXTT5=
EXTT6=
EXTT7=
EXTT8=
EXTT9=
EXTT10=
EXTT11=
EXTT12=
EXTT13=
EXTT14=
EXTT15=
EXTT16=
EXTT17=
EXTT18=
EXTT19=
EXTT20=
EXTT21=
EXTT22=
EXTT23=
EXTT24=
PLAYORDER=
